# AST/ASF file generated using VICON BodyLanguage
# -----------------------------------------------
:version 1.10
:name VICON
:units
  mass 1.0
  length 0.45
  angle deg
:documentation
   .ast/.asf automatically generated from VICON data using
   VICON BodyBuilder and BodyLanguage model FoxedUp or BRILLIANT.MOD
:root
   order TX TY TZ RX RY RZ
   axis XYZ
   position 0 0 0  
   orientation 0 0 0 
:bonedata
  begin
     id 1 
     name lhipjoint
     direction 0.646657 -0.683706 0.338203 
     length 2.4948 
     axis 0 0 0  XYZ
  end
  begin
     id 2 
     name lfemur
     direction 0.34202 -0.939693 0  
     length 6.79491  
     axis 0 0 20  XYZ
    dof rx ry rz
    limits (-160.0 20.0)
           (-70.0 70.0)
           (-60.0 70.0)
  end
  begin
     id 3 
     name ltibia
     direction 0.34202 -0.939693 0   
     length 7.56807   
     axis 0 0 20   XYZ
    dof rx
    limits (-10.0 170.0)
  end
  begin
     id 4 
     name lfoot
     direction 0.0679796 -0.186772 0.980048   
     length 2.53018   
     axis -90 7.62852e-016 20   XYZ
    dof rx rz
    limits (-45.0 90.0)
           (-70.0 20.0)
  end
  begin
     id 5 
     name ltoes
     direction 1.53625e-011 -4.21881e-011 1   
     length 1.26912   
     axis -90 7.62852e-016 20   XYZ
    dof rx
    limits (-90.0 20.0)
  end
  begin
     id 6 
     name rhipjoint
     direction -0.618868 -0.704065 0.348274   
     length 2.42265  
     axis 0 0 0  XYZ 
  end
  begin
     id 7 
     name rfemur
     direction -0.34202 -0.939693 0   
     length 6.73814   
     axis 0 0 -20   XYZ
    dof rx ry rz
    limits (-160.0 20.0)
           (-70.0 70.0)
           (-70.0 60.0)
  end
  begin
     id 8 
     name rtibia
     direction -0.34202 -0.939693 0   
     length 7.66799   
     axis 0 0 -20   XYZ
    dof rx
    limits (-10.0 170.0)
 end
 begin
     id 9 
     name rfoot
     direction -0.0727352 -0.199838 0.977125   
     length 2.57224  
     axis -90 -7.62852e-016 -20   XYZ
    dof rx rz
    limits (-45.0 90.0)
           (-20.0 70.0)
  end
  begin
     id 10 
     name rtoes
     direction -1.53501e-011 -4.21858e-011 1   
     length 1.28858   
     axis -90 -7.62852e-016 -20   XYZ
    dof rx
    limits (-90.0 20.0)
  end
  begin
     id 11 
     name lowerback
     direction -0.0172471 0.995767 -0.0902851   
     length 2.20206   
     axis 0 0 0   XYZ
    dof rx ry rz
    limits (-20.0 45.0)
           (-30.0 30.0)
           (-30.0 30.0)
  end
  begin
     id 12 
     name upperback
     direction -0.000110737 0.999714 0.0239043   
     length 2.19523   
     axis 0 0 0   XYZ
    dof rx ry rz
    limits (-20.0 45.0)
           (-30.0 30.0)
           (-30.0 30.0)
  end
  begin
     id 13 
     name thorax
     direction 0.00704869 0.997783 0.0661741   
     length 2.21977   
     axis 0 0 0   XYZ
    dof rx ry rz
    limits (-20.0 45.0)
           (-30.0 30.0)
           (-30.0 30.0)
  end
  begin
     id 14 
     name lowerneck
     direction -0.00407501 0.995527 0.0943846   
     length 1.83142   
     axis 0 0 0   XYZ
    dof rx ry rz
    limits (-20.0 45.0)
           (-30.0 30.0)
           (-30.0 30.0)
  end
  begin
     id 15 
     name upperneck
     direction 0.0640586 0.986486 -0.150807   
     length 1.84616   
     axis 0 0 0   XYZ
    dof rx ry rz
    limits (-20.0 45.0)
           (-30.0 30.0)
           (-30.0 30.0)
  end
  begin
     id 16
     name head
     direction 0.0188017 0.99791 -0.0618239  
     length 1.85932  
     axis 0 0 0   XYZ
    dof rx ry rz
    limits (-20.0 45.0)
           (-30.0 30.0)
           (-30.0 30.0)
  end
  begin
     id 17 
     name lclavicle
     direction 0.976074 0.206905 0.066852  
     length 3.81043  
     axis 0 0 0   XYZ
    dof ry rz
    limits (-20.0 10.0)
           (0.0 20.0)
  end
  begin
     id 18 
     name lhumerus
     direction 1 -4.48971e-011 1.86916e-027   
     length 5.37587   
     axis 180 -30 -90   XYZ
    dof rx ry rz
    limits (-60.0 90.0)
           (-90.0 90.0)
           (-90.0 90.0)
  end
  begin
     id 19
     name lradius
     direction 1 -4.48968e-011 1.69187e-027   
     length 3.35977   
     axis 180 -30 -90   XYZ
    dof rx
    limits (-10.0 170.0)
  end
  begin
     id 20
     name lwrist
     direction 1 -4.48968e-011 5.8978e-027   
     length 1.67988   
     axis -3.27506e-015 90 90   XYZ
    dof ry
    limits (-180.0 0.0)
 end
  begin
     id 21 
     name lhand
     direction 1 -4.49028e-011 1.18071e-026   
     length 0.561859   
     axis -7.52654e-015 90 90   XYZ
    dof rx rz
    limits (-90.0 90.0)
           (-45.0 45.0)
  end
  begin
     id 22 
     name lfingers
     direction 1 -4.48927e-011 2.35758e-026   
     length 0.452985   
     axis -1.50534e-014 90 90   XYZ
    dof rx
    limits (0.0 90.0)
  end
  begin
     id 23
     name lthumb
     direction 0.707107 -6.34898e-011 0.707107   
     length 0.650399   
     axis -90 45 5.69224e-014   XYZ
    dof rx rz
    limits (-45.0 45.0)
           (-45.0 45.0)
  end
  begin
     id 24 
     name rclavicle
     direction -0.988403 0.151789 0.00439714   
     length 3.6942  
     axis 0 0 0   XYZ 
    dof ry rz
    limits (-10.0 20.0)
           (-20.0 0.0)
  end
  begin
     id 25 
     name rhumerus
     direction -1 -4.48978e-011 1.62495e-027  
     length 5.22819   
     axis 180 30 90   XYZ
    dof rx ry rz
    limits (-90.0 60.0)
           (-90.0 90.0)
           (-90.0 90.0)
  end
  begin
     id 26 
     name rradius
     direction -1 -4.48961e-011 3.47796e-027   
     length 3.40764   
     axis 180 30 90   XYZ
    dof rx
    limits (-10.0 170.0)
  end
  begin
     id 27 
     name rwrist
     direction -1 -4.48949e-011 5.89602e-027   
     length 1.70382   
     axis -3.27506e-015 -90 -90   XYZ
    dof ry
    limits (-180.0 0.0)
  end
  begin
     id 28
     name rhand
     direction -1 -4.48977e-011 1.17973e-026   
     length 0.583255   
     axis -7.52654e-015 -90 -90   XYZ
    dof rx rz
    limits (-90.0 90.0)
           (-45.0 45.0)
  end
  begin
     id 29
     name rfingers
     direction -1 -4.49099e-011 2.36408e-026   
     length 0.470235   
     axis -1.50534e-014 -90 -90   XYZ
    dof rx
    limits (0.0 90.0)
  end
  begin
     id 30
     name rthumb
     direction -0.707107 -6.35011e-011 0.707107   
     length 0.675167   
     axis -90 -45 -5.69224e-014   XYZ
    dof rx rz
    limits (-45.0 45.0)
           (-45.0 45.0)
  end
:hierarchy
  begin
    root lhipjoint rhipjoint lowerback
    lhipjoint lfemur
    lfemur ltibia
    ltibia lfoot
    lfoot ltoes
    rhipjoint rfemur
    rfemur rtibia
    rtibia rfoot
    rfoot rtoes
    lowerback upperback
    upperback thorax
    thorax lowerneck lclavicle rclavicle
    lowerneck upperneck
    upperneck head
    lclavicle lhumerus
    lhumerus lradius
    lradius lwrist
    lwrist lhand lthumb
    lhand lfingers
    rclavicle rhumerus
    rhumerus rradius
    rradius rwrist
    rwrist rhand rthumb
    rhand rfingers
  end

#!OML:ASF G:\JayActor3\Patient Classification 1\Patient 1\Session 2\male.ASF
:FULLY-SPECIFIED
:DEGREES
1
root 49.4607 16.4158 -8.03993 16.9712 -83.4187 -14.6942
lowerback 2.9582 -1.55041 -0.917841
upperback 6.00293 -2.23585 0.511747
thorax 4.59317 -1.23196 1.01123
lowerneck 3.61643 -10.5129 -9.45077
upperneck -4.21126 -14.1939 9.74653
head -0.448575 -7.19208 4.43394
rclavicle 1.84373e-014 -2.78299e-015
rhumerus -34.8088 6.40425 -88.1518
rradius 32.4436
rwrist -7.57906
rhand -21.7793 4.92433
rfingers 7.12502
rthumb 4.6219 -25.0052
lclavicle 1.84373e-014 -2.78299e-015
lhumerus -20.9312 -6.0516 89.6771
lradius 25.6028
lwrist 10.7554
lhand -23.882 19.5181
lfingers 7.12502
lthumb 2.59134 49.4822
rfemur -17.541 -2.86161 23.7831
rtibia 39.5904
rfoot -31.6734 -2.03388
rtoes 34.3349
lfemur -24.7604 12.6211 -19.8699
ltibia 48.1297
lfoot -15.6998 -3.44521
ltoes -14.3328
2
root 49.4496 16.4172 -8.04592 17.1522 -83.4256 -14.9662
lowerback 2.97709 -1.54348 -0.85832
upperback 6.00879 -2.22992 0.57899
thorax 4.58897 -1.22849 1.04797
lowerneck 3.68493 -10.5377 -9.4077
upperneck -4.32008 -14.2261 9.72223
head -0.493508 -7.20977 4.42837
rclavicle 1.72446e-014 -4.96962e-015
rhumerus -34.7203 6.16921 -88.0174
rradius 31.92
rwrist -7.22115
rhand -21.5963 4.86676
rfingers 7.12502
rthumb 4.7986 -25.0589
lclavicle 1.72446e-014 -4.96962e-015
lhumerus -21.2075 -5.61511 89.6354
lradius 25.1265
lwrist 10.548
lhand -24.4862 19.474
lfingers 7.12502
lthumb 2.00781 49.4443
rfemur -17.3428 -2.77653 23.8382
rtibia 39.4778
rfoot -31.682 -1.97135
rtoes 17.9723
lfemur -25.1964 12.539 -19.7364
ltibia 48.7076
lfoot -15.9616 -2.62059
ltoes -16.0445
3
root 49.4355 16.4184 -8.04936 17.2654 -83.4175 -15.1499
lowerback 2.90791 -1.5318 -0.794523
upperback 6.0344 -2.21733 0.642556
thorax 4.65488 -1.22172 1.07539
lowerneck 3.71399 -10.5726 -9.36095
upperneck -4.52179 -14.264 9.75653
head -0.554731 -7.23153 4.44016
rclavicle 7.10655e-015 -7.55382e-015
rhumerus -34.5817 5.86744 -87.853
rradius 31.384
rwrist -6.86914
rhand -21.416 4.8444
rfingers 7.12502
rthumb 4.97265 -25.0773
lclavicle 7.10655e-015 -7.55382e-015
lhumerus -21.4854 -5.20195 89.5887
lradius 24.6989
lwrist 10.2704
lhand -25.3183 19.6003
lfingers 7.12502
lthumb 1.20419 49.5767
rfemur -17.127 -2.76985 23.8774
rtibia 39.3072
rfoot -31.6147 -1.74107
rtoes 13.7017
lfemur -25.5135 12.34 -19.6156
ltibia 48.9332
lfoot -16.1001 -1.65605
ltoes -17.5063
4
root 49.4163 16.4268 -8.04875 17.0534 -83.4754 -14.9916
lowerback 2.87218 -1.53975 -0.775376
upperback 5.99936 -2.22769 0.683338
thorax 4.63951 -1.22622 1.10623
lowerneck 3.80799 -10.577 -9.35186
upperneck -4.62922 -14.2728 9.72642
head -0.603676 -7.23721 4.44012
rclavicle 6.36111e-015 -1.27222e-014
rhumerus -34.5832 5.66978 -87.7215
rradius 30.9545
rwrist -6.62835
rhand -21.3093 4.8028
rfingers 7.12502
rthumb 5.07568 -25.1164
lclavicle 6.36111e-015 -1.27222e-014
lhumerus -21.8902 -4.72955 89.5576
lradius 24.3304
lwrist 10.9028
lhand -26.1559 19.6546
lfingers 7.12502
lthumb 0.395219 49.6339
rfemur -16.8944 -2.76704 23.8308
rtibia 39.1211
rfoot -31.5623 -1.50038
rtoes 16.6843
lfemur -25.789 12.1565 -19.5518
ltibia 49.0373
lfoot -16.3497 -0.642249
ltoes -18.866
5
root 49.3983 16.433 -8.04934 16.8642 -83.5197 -14.8622
lowerback 2.83441 -1.53454 -0.749143
upperback 5.98211 -2.22122 0.721709
thorax 4.64314 -1.22241 1.13043
lowerneck 3.85894 -10.5951 -9.31621
upperneck -4.71912 -14.2958 9.70695
head -0.640242 -7.2499 4.4356
rclavicle 3.18055e-015 1.98785e-016
rhumerus -34.5384 5.40333 -87.5764
rradius 30.4979
rwrist -6.34492
rhand -21.1917 4.7773
rfingers 7.12502
rthumb 5.18929 -25.1392
lclavicle 3.18055e-015 1.98785e-016
lhumerus -22.2175 -4.17017 89.454
lradius 23.9043
lwrist 10.9723
lhand -26.6206 19.7087
lfingers 7.12502
lthumb -0.0536666 49.6884
rfemur -16.652 -2.74382 23.8004
rtibia 38.9199
rfoot -31.5125 -1.24011
rtoes 15.2263
lfemur -26.0003 11.9573 -19.475
ltibia 49.0079
lfoot -16.4097 0.374161
ltoes -20.5138
6
root 49.3785 16.4408 -8.04861 16.5408 -83.5838 -14.5899
lowerback 2.79114 -1.52425 -0.735648
upperback 5.95676 -2.20692 0.745615
thorax 4.64104 -1.21461 1.14692
lowerneck 3.886 -10.6134 -9.27801
upperneck -4.77151 -14.3187 9.68752
head -0.662114 -7.26196 4.42777
rclavicle 1.72943e-014 -6.36111e-015
rhumerus -34.5088 5.11756 -87.4336
rradius 30.0686
rwrist -6.08544
rhand -21.096 4.76275
rfingers 7.12502
rthumb 5.28165 -25.1514
lclavicle 1.72943e-014 -6.36111e-015
lhumerus -22.5404 -3.57616 89.3149
lradius 23.4736
lwrist 11.0351
lhand -26.897 19.763
lfingers 7.12502
lthumb -0.320618 49.7425
rfemur -16.3944 -2.71602 23.7421
rtibia 38.691
rfoot -31.4593 -0.979673
rtoes 15.4589
lfemur -26.1337 11.7287 -19.4159
ltibia 48.782
lfoot -16.4159 1.38424
ltoes -22.0864
7
root 49.3571 16.4497 -8.04678 16.1047 -83.6702 -14.1977
lowerback 2.74302 -1.50891 -0.735369
upperback 5.92612 -2.18502 0.756426
thorax 4.63587 -1.2031 1.15735
lowerneck 3.89618 -10.6286 -9.24455
upperneck -4.79338 -14.3374 9.67789
head -0.671558 -7.27177 4.42127
rclavicle -3.1408e-014 1.92821e-014
rhumerus -34.4932 4.82508 -87.2973
rradius 29.6723
rwrist -5.85291
rhand -21.0225 4.75627
rfingers 7.12502
rthumb 5.35261 -25.1561
lclavicle -3.1408e-014 1.92821e-014
lhumerus -22.8561 -2.98737 89.1511
lradius 23.04
lwrist 11.1208
lhand -27 19.804
lfingers 7.12502
lthumb -0.420067 49.7833
rfemur -16.1338 -2.67447 23.6605
rtibia 38.4617
rfoot -31.4203 -0.753637
rtoes 15.9161
lfemur -26.2187 11.4745 -19.3706
ltibia 48.4323
lfoot -16.4238 2.30778
ltoes -23.3194
